solid elevator
facet normal 0.000000 1.000000 0.000000
outer loop
vertex 0.341796 -0.282998 0.350952
vertex 0.339057 -0.282998 0.354660
vertex 0.349382 -0.282998 0.393631
endloop
endfacet
facet normal 0.000000 1.000000 0.000000
outer loop
vertex 0.352613 -0.282998 0.394202
vertex 0.353081 -0.282998 0.394223
vertex 0.363512 -0.282998 0.333772
endloop
endfacet
facet normal 0.000000 1.000000 0.000000
outer loop
vertex 0.352613 -0.282998 0.394202
vertex 0.363512 -0.282998 0.333772
vertex 0.349382 -0.282998 0.393631
endloop
endfacet
facet normal 0.000000 1.000000 0.000000
outer loop
vertex 0.349382 -0.282998 0.393631
vertex 0.363512 -0.282998 0.333772
vertex 0.353935 -0.282998 0.339988
endloop
endfacet
facet normal 0.000000 1.000000 0.000001
outer loop
vertex 0.349382 -0.282998 0.393631
vertex 0.353935 -0.282998 0.339988
vertex 0.350524 -0.282998 0.342749
endloop
endfacet
facet normal 0.000000 1.000000 0.000000
outer loop
vertex 0.350524 -0.282998 0.342749
vertex 0.347063 -0.282998 0.345550
vertex 0.349382 -0.282998 0.393631
endloop
endfacet
facet normal 0.000000 1.000000 0.000000
outer loop
vertex 0.349382 -0.282998 0.393631
vertex 0.347063 -0.282998 0.345550
vertex 0.343707 -0.282998 0.348992
endloop
endfacet
facet normal 0.000000 1.000000 0.000001
outer loop
vertex 0.349382 -0.282998 0.393631
vertex 0.343707 -0.282998 0.348992
vertex 0.341796 -0.282998 0.350952
endloop
endfacet
facet normal 0.000000 1.000000 0.000000
outer loop
vertex 0.353081 -0.282998 0.394223
vertex 0.354955 -0.282998 0.394307
vertex 0.363512 -0.282998 0.333772
endloop
endfacet
facet normal 0.000000 1.000000 -0.000001
outer loop
vertex 0.363512 -0.282998 0.333772
vertex 0.354955 -0.282998 0.394307
vertex 0.361299 -0.282998 0.393725
endloop
endfacet
facet normal 0.000000 1.000000 -0.000004
outer loop
vertex 0.363512 -0.282998 0.333772
vertex 0.361299 -0.282998 0.393725
vertex 0.361348 -0.282998 0.393721
endloop
endfacet
facet normal 0.000000 1.000000 0.000001
outer loop
vertex 0.361348 -0.282998 0.393721
vertex 0.367731 -0.282998 0.392107
vertex 0.363512 -0.282998 0.333772
endloop
endfacet
facet normal 0.000000 1.000000 0.000012
outer loop
vertex 0.363512 -0.282998 0.333772
vertex 0.367731 -0.282998 0.392107
vertex 0.367891 -0.282998 0.392067
endloop
endfacet
facet normal 0.000000 1.000000 -0.000001
outer loop
vertex 0.363512 -0.282998 0.333772
vertex 0.367891 -0.282998 0.392067
vertex 0.374614 -0.282998 0.389324
endloop
endfacet
facet normal 0.000000 1.000000 0.000000
outer loop
vertex 0.339057 -0.282998 0.354660
vertex 0.337829 -0.282998 0.356323
vertex 0.349382 -0.282998 0.393631
endloop
endfacet
facet normal 0.000000 1.000000 0.000002
outer loop
vertex 0.349382 -0.282998 0.393631
vertex 0.337829 -0.282998 0.356323
vertex 0.336030 -0.282998 0.359740
endloop
endfacet
facet normal 0.000000 1.000000 0.000000
outer loop
vertex 0.349382 -0.282998 0.393631
vertex 0.336030 -0.282998 0.359740
vertex 0.335214 -0.282998 0.361289
endloop
endfacet
facet normal 0.000000 1.000000 0.000000
outer loop
vertex 0.335214 -0.282998 0.361289
vertex 0.334134 -0.282998 0.364453
vertex 0.349382 -0.282998 0.393631
endloop
endfacet
facet normal 0.000000 1.000000 -0.000016
outer loop
vertex 0.349382 -0.282998 0.393631
vertex 0.334134 -0.282998 0.364453
vertex 0.333620 -0.282998 0.365961
endloop
endfacet
facet normal 0.000000 1.000000 0.000007
outer loop
vertex 0.349382 -0.282998 0.393631
vertex 0.333620 -0.282998 0.365961
vertex 0.333041 -0.282998 0.368997
endloop
endfacet
facet normal 0.000000 1.000000 0.000000
outer loop
vertex 0.486417 -0.282998 0.265387
vertex 0.484805 -0.282998 0.262857
vertex 0.433508 -0.282998 0.331974
endloop
endfacet
facet normal 0.000000 1.000000 0.000000
outer loop
vertex 0.433508 -0.282998 0.331974
vertex 0.484805 -0.282998 0.262857
vertex 0.363512 -0.282998 0.333772
endloop
endfacet
facet normal 0.000000 1.000000 -0.000004
outer loop
vertex 0.433508 -0.282998 0.331974
vertex 0.363512 -0.282998 0.333772
vertex 0.421004 -0.282998 0.347432
endloop
endfacet
facet normal 0.000000 1.000000 0.000000
outer loop
vertex 0.333041 -0.282998 0.368997
vertex 0.332939 -0.282998 0.369534
vertex 0.349382 -0.282998 0.393631
endloop
endfacet
facet normal 0.000000 1.000000 0.000013
outer loop
vertex 0.349382 -0.282998 0.393631
vertex 0.332939 -0.282998 0.369534
vertex 0.332857 -0.282998 0.371406
endloop
endfacet
facet normal 0.000000 1.000000 0.000001
outer loop
vertex 0.349382 -0.282998 0.393631
vertex 0.332857 -0.282998 0.371406
vertex 0.332780 -0.282998 0.373165
endloop
endfacet
facet normal 0.000000 1.000000 0.000000
outer loop
vertex 0.374614 -0.282998 0.389324
vertex 0.376230 -0.282998 0.388422
vertex 0.363512 -0.282998 0.333772
endloop
endfacet
facet normal 0.000000 1.000000 -0.000001
outer loop
vertex 0.363512 -0.282998 0.333772
vertex 0.376230 -0.282998 0.388422
vertex 0.381714 -0.282998 0.385358
endloop
endfacet
facet normal 0.000000 1.000000 0.000002
outer loop
vertex 0.363512 -0.282998 0.333772
vertex 0.381714 -0.282998 0.385358
vertex 0.387222 -0.282998 0.381463
endloop
endfacet
facet normal 0.000000 1.000000 0.000000
outer loop
vertex 0.402412 -0.282998 0.368166
vertex 0.406191 -0.282998 0.364431
vertex 0.363512 -0.282998 0.333772
endloop
endfacet
facet normal 0.000000 1.000000 -0.000001
outer loop
vertex 0.363512 -0.282998 0.333772
vertex 0.406191 -0.282998 0.364431
vertex 0.417799 -0.282998 0.351394
endloop
endfacet
facet normal 0.000000 1.000000 0.000006
outer loop
vertex 0.363512 -0.282998 0.333772
vertex 0.417799 -0.282998 0.351394
vertex 0.421004 -0.282998 0.347432
endloop
endfacet
facet normal 0.000000 1.000000 0.000000
outer loop
vertex 0.332780 -0.282998 0.373165
vertex 0.333011 -0.282998 0.375140
vertex 0.349382 -0.282998 0.393631
endloop
endfacet
facet normal 0.000000 1.000000 -0.000009
outer loop
vertex 0.349382 -0.282998 0.393631
vertex 0.333011 -0.282998 0.375140
vertex 0.333174 -0.282998 0.376537
endloop
endfacet
facet normal 0.000000 1.000000 0.000010
outer loop
vertex 0.349382 -0.282998 0.393631
vertex 0.333174 -0.282998 0.376537
vertex 0.333813 -0.282998 0.378791
endloop
endfacet
facet normal 0.000000 1.000000 -0.000007
outer loop
vertex 0.387222 -0.282998 0.381463
vertex 0.389356 -0.282998 0.379954
vertex 0.363512 -0.282998 0.333772
endloop
endfacet
facet normal 0.000000 1.000000 0.000002
outer loop
vertex 0.363512 -0.282998 0.333772
vertex 0.389356 -0.282998 0.379954
vertex 0.397505 -0.282998 0.373013
endloop
endfacet
facet normal 0.000000 1.000000 -0.000001
outer loop
vertex 0.363512 -0.282998 0.333772
vertex 0.397505 -0.282998 0.373013
vertex 0.402412 -0.282998 0.368166
endloop
endfacet
facet normal 0.000000 1.000000 -0.000066
outer loop
vertex 0.333813 -0.282998 0.378791
vertex 0.334166 -0.282998 0.380038
vertex 0.349382 -0.282998 0.393631
endloop
endfacet
facet normal 0.000000 1.000000 0.000044
outer loop
vertex 0.349382 -0.282998 0.393631
vertex 0.334166 -0.282998 0.380038
vertex 0.335203 -0.282998 0.382262
endloop
endfacet
facet normal 0.000000 1.000000 -0.000060
outer loop
vertex 0.349382 -0.282998 0.393631
vertex 0.335203 -0.282998 0.382262
vertex 0.335598 -0.282998 0.383111
endloop
endfacet
facet normal 0.000000 1.000000 0.000000
outer loop
vertex 0.335598 -0.282998 0.383111
vertex 0.337177 -0.282998 0.385438
vertex 0.349382 -0.282998 0.393631
endloop
endfacet
facet normal 0.000000 1.000000 0.000019
outer loop
vertex 0.349382 -0.282998 0.393631
vertex 0.337177 -0.282998 0.385438
vertex 0.337642 -0.282998 0.386122
endloop
endfacet
facet normal 0.000000 1.000000 0.000000
outer loop
vertex 0.349382 -0.282998 0.393631
vertex 0.337642 -0.282998 0.386122
vertex 0.339646 -0.282998 0.388248
endloop
endfacet
facet normal 0.000000 1.000000 0.000602
outer loop
vertex 0.342570 -0.282998 0.390587
vertex 0.342854 -0.282998 0.390805
vertex 0.345837 -0.282998 0.392416
endloop
endfacet
facet normal 0.000000 1.000000 0.000000
outer loop
vertex 0.339646 -0.282998 0.388248
vertex 0.339967 -0.282998 0.388589
vertex 0.349382 -0.282998 0.393631
endloop
endfacet
facet normal 0.000000 1.000000 -0.000020
outer loop
vertex 0.349382 -0.282998 0.393631
vertex 0.339967 -0.282998 0.388589
vertex 0.342570 -0.282998 0.390587
endloop
endfacet
facet normal 0.000000 0.999999 0.001176
outer loop
vertex 0.349382 -0.282998 0.393631
vertex 0.342570 -0.282998 0.390587
vertex 0.349274 -0.282998 0.393612
endloop
endfacet
facet normal 0.000000 1.000000 -0.000049
outer loop
vertex 0.349274 -0.282998 0.393612
vertex 0.342570 -0.282998 0.390587
vertex 0.345837 -0.282998 0.392416
endloop
endfacet
facet normal 0.000000 -1.000000 0.000000
outer loop
vertex 0.332768 -1.596998 0.371872
vertex 0.332802 -1.596998 0.371404
vertex 0.335178 -1.596998 0.382270
endloop
endfacet
facet normal 0.000000 -1.000000 -0.000106
outer loop
vertex 0.351330 -1.596998 0.394038
vertex 0.349395 -1.596998 0.393577
vertex 0.332802 -1.596998 0.371404
endloop
endfacet
facet normal 0.000000 -1.000000 0.000000
outer loop
vertex 0.338432 -1.596998 0.355390
vertex 0.339018 -1.596998 0.354633
vertex 0.382944 -1.596998 0.384565
endloop
endfacet
facet normal 0.000000 -1.000000 0.000025
outer loop
vertex 0.382944 -1.596998 0.384565
vertex 0.339018 -1.596998 0.354633
vertex 0.342437 -1.596998 0.350214
endloop
endfacet
facet normal 0.000000 -1.000000 -0.000070
outer loop
vertex 0.382944 -1.596998 0.384565
vertex 0.342437 -1.596998 0.350214
vertex 0.343683 -1.596998 0.348971
endloop
endfacet
facet normal 0.000000 -1.000000 -0.000081
outer loop
vertex 0.335178 -1.596998 0.382270
vertex 0.332802 -1.596998 0.371404
vertex 0.336857 -1.596998 0.385089
endloop
endfacet
facet normal 0.000000 -1.000000 -0.000324
outer loop
vertex 0.362191 -1.596998 0.393566
vertex 0.361292 -1.596998 0.393670
vertex 0.332802 -1.596998 0.371404
endloop
endfacet
facet normal 0.000000 -1.000000 0.000000
outer loop
vertex 0.332802 -1.596998 0.371404
vertex 0.361292 -1.596998 0.393670
vertex 0.355958 -1.596998 0.394285
endloop
endfacet
facet normal 0.000000 -1.000000 0.000000
outer loop
vertex 0.332939 -1.596998 0.369534
vertex 0.333052 -1.596998 0.369000
vertex 0.382944 -1.596998 0.384565
endloop
endfacet
facet normal 0.000000 -1.000000 -0.000045
outer loop
vertex 0.382944 -1.596998 0.384565
vertex 0.333052 -1.596998 0.369000
vertex 0.333954 -1.596998 0.364751
endloop
endfacet
facet normal 0.000000 -1.000000 0.000203
outer loop
vertex 0.382944 -1.596998 0.384565
vertex 0.333954 -1.596998 0.364751
vertex 0.334077 -1.596998 0.364434
endloop
endfacet
facet normal 0.000000 -1.000000 0.000000
outer loop
vertex 0.334077 -1.596998 0.364434
vertex 0.335795 -1.596998 0.360009
vertex 0.382944 -1.596998 0.384565
endloop
endfacet
facet normal 0.000000 -1.000000 0.000313
outer loop
vertex 0.382944 -1.596998 0.384565
vertex 0.335795 -1.596998 0.360009
vertex 0.335967 -1.596998 0.359708
endloop
endfacet
facet normal 0.000000 -1.000000 -0.000035
outer loop
vertex 0.382944 -1.596998 0.384565
vertex 0.335967 -1.596998 0.359708
vertex 0.338432 -1.596998 0.355390
endloop
endfacet
facet normal 0.000000 -1.000000 0.000071
outer loop
vertex 0.484805 -1.596998 0.262857
vertex 0.486417 -1.596998 0.265387
vertex 0.363512 -1.596998 0.333772
endloop
endfacet
facet normal 0.000000 -1.000000 -0.000003
outer loop
vertex 0.363512 -1.596998 0.333772
vertex 0.486417 -1.596998 0.265387
vertex 0.433508 -1.596998 0.331974
endloop
endfacet
facet normal 0.000000 -1.000000 0.000000
outer loop
vertex 0.363512 -1.596998 0.333772
vertex 0.433508 -1.596998 0.331974
vertex 0.421045 -1.596998 0.347465
endloop
endfacet
facet normal 0.000000 -1.000000 0.000000
outer loop
vertex 0.332939 -1.596998 0.369534
vertex 0.382944 -1.596998 0.384565
vertex 0.332802 -1.596998 0.371404
endloop
endfacet
facet normal 0.000000 -1.000000 0.000026
outer loop
vertex 0.332802 -1.596998 0.371404
vertex 0.382944 -1.596998 0.384565
vertex 0.376251 -1.596998 0.388460
endloop
endfacet
facet normal 0.000000 -1.000000 -0.000148
outer loop
vertex 0.332802 -1.596998 0.371404
vertex 0.376251 -1.596998 0.388460
vertex 0.375618 -1.596998 0.388828
endloop
endfacet
facet normal 0.000000 -1.000000 0.000000
outer loop
vertex 0.355958 -1.596998 0.394285
vertex 0.354955 -1.596998 0.394307
vertex 0.332802 -1.596998 0.371404
endloop
endfacet
facet normal 0.000000 -1.000000 0.000105
outer loop
vertex 0.332802 -1.596998 0.371404
vertex 0.354955 -1.596998 0.394307
vertex 0.353086 -1.596998 0.394168
endloop
endfacet
facet normal 0.000000 -1.000000 -0.000025
outer loop
vertex 0.332802 -1.596998 0.371404
vertex 0.353086 -1.596998 0.394168
vertex 0.351330 -1.596998 0.394038
endloop
endfacet
facet normal 0.000000 -1.000000 0.000150
outer loop
vertex 0.349395 -1.596998 0.393577
vertex 0.348028 -1.596998 0.393251
vertex 0.332802 -1.596998 0.371404
endloop
endfacet
facet normal 0.000000 -1.000000 -0.000014
outer loop
vertex 0.332802 -1.596998 0.371404
vertex 0.348028 -1.596998 0.393251
vertex 0.345864 -1.596998 0.392352
endloop
endfacet
facet normal 0.000000 -1.000000 -0.000100
outer loop
vertex 0.332802 -1.596998 0.371404
vertex 0.345864 -1.596998 0.392352
vertex 0.344667 -1.596998 0.391854
endloop
endfacet
facet normal 0.000000 -1.000000 0.000000
outer loop
vertex 0.335178 -1.596998 0.382270
vertex 0.334995 -1.596998 0.381962
vertex 0.333746 -1.596998 0.378810
endloop
endfacet
facet normal 0.000000 -1.000000 0.000000
outer loop
vertex 0.421045 -1.596998 0.347465
vertex 0.420059 -1.596998 0.348691
vertex 0.363512 -1.596998 0.333772
endloop
endfacet
facet normal 0.000000 -1.000000 0.000009
outer loop
vertex 0.363512 -1.596998 0.333772
vertex 0.420059 -1.596998 0.348691
vertex 0.409222 -1.596998 0.361184
endloop
endfacet
facet normal 0.000000 -1.000000 -0.000018
outer loop
vertex 0.363512 -1.596998 0.333772
vertex 0.409222 -1.596998 0.361184
vertex 0.402411 -1.596998 0.368167
endloop
endfacet
facet normal 0.000000 -1.000000 0.000000
outer loop
vertex 0.343683 -1.596998 0.348971
vertex 0.347549 -1.596998 0.345112
vertex 0.382944 -1.596998 0.384565
endloop
endfacet
facet normal 0.000000 -1.000000 -0.000023
outer loop
vertex 0.382944 -1.596998 0.384565
vertex 0.347549 -1.596998 0.345112
vertex 0.350517 -1.596998 0.342742
endloop
endfacet
facet normal 0.000000 -1.000000 0.000027
outer loop
vertex 0.382944 -1.596998 0.384565
vertex 0.350517 -1.596998 0.342742
vertex 0.387204 -1.596998 0.381441
endloop
endfacet
facet normal 0.000000 -1.000000 0.000004
outer loop
vertex 0.387204 -1.596998 0.381441
vertex 0.350517 -1.596998 0.342742
vertex 0.354249 -1.596998 0.339761
endloop
endfacet
facet normal 0.000000 -1.000000 -0.000031
outer loop
vertex 0.387204 -1.596998 0.381441
vertex 0.354249 -1.596998 0.339761
vertex 0.390885 -1.596998 0.378741
endloop
endfacet
facet normal 0.000000 -1.000000 0.000010
outer loop
vertex 0.390885 -1.596998 0.378741
vertex 0.354249 -1.596998 0.339761
vertex 0.363512 -1.596998 0.333772
endloop
endfacet
facet normal 0.000000 -1.000000 0.000000
outer loop
vertex 0.390885 -1.596998 0.378741
vertex 0.363512 -1.596998 0.333772
vertex 0.399608 -1.596998 0.371041
endloop
endfacet
facet normal 0.000000 -1.000000 0.000000
outer loop
vertex 0.399608 -1.596998 0.371041
vertex 0.363512 -1.596998 0.333772
vertex 0.402411 -1.596998 0.368167
endloop
endfacet
facet normal 0.000000 -1.000000 0.000030
outer loop
vertex 0.375618 -1.596998 0.388828
vertex 0.368706 -1.596998 0.391789
vertex 0.332802 -1.596998 0.371404
endloop
endfacet
facet normal 0.000000 -1.000000 -0.000179
outer loop
vertex 0.332802 -1.596998 0.371404
vertex 0.368706 -1.596998 0.391789
vertex 0.367717 -1.596998 0.392059
endloop
endfacet
facet normal 0.000000 -1.000000 0.000034
outer loop
vertex 0.332802 -1.596998 0.371404
vertex 0.367717 -1.596998 0.392059
vertex 0.362191 -1.596998 0.393566
endloop
endfacet
facet normal 0.000000 -1.000000 0.000000
outer loop
vertex 0.344667 -1.596998 0.391854
vertex 0.342581 -1.596998 0.390564
vertex 0.332802 -1.596998 0.371404
endloop
endfacet
facet normal 0.000000 -1.000000 -0.000111
outer loop
vertex 0.332802 -1.596998 0.371404
vertex 0.342581 -1.596998 0.390564
vertex 0.341784 -1.596998 0.390071
endloop
endfacet
facet normal 0.000000 -1.000000 0.000020
outer loop
vertex 0.332802 -1.596998 0.371404
vertex 0.341784 -1.596998 0.390071
vertex 0.339658 -1.596998 0.388230
endloop
endfacet
facet normal 0.000000 -1.000000 0.000000
outer loop
vertex 0.339658 -1.596998 0.388230
vertex 0.339033 -1.596998 0.387688
vertex 0.332802 -1.596998 0.371404
endloop
endfacet
facet normal 0.000000 -1.000000 0.000028
outer loop
vertex 0.332802 -1.596998 0.371404
vertex 0.339033 -1.596998 0.387688
vertex 0.337157 -1.596998 0.385448
endloop
endfacet
facet normal 0.000000 -1.000000 0.000066
outer loop
vertex 0.332802 -1.596998 0.371404
vertex 0.337157 -1.596998 0.385448
vertex 0.336857 -1.596998 0.385089
endloop
endfacet
facet normal 0.000000 -1.000000 -0.000196
outer loop
vertex 0.333746 -1.596998 0.378810
vertex 0.332962 -1.596998 0.375256
vertex 0.335178 -1.596998 0.382270
endloop
endfacet
facet normal 0.000000 -1.000000 -0.000724
outer loop
vertex 0.335178 -1.596998 0.382270
vertex 0.332962 -1.596998 0.375256
vertex 0.332955 -1.596998 0.375147
endloop
endfacet
facet normal 0.000000 -1.000000 0.000049
outer loop
vertex 0.335178 -1.596998 0.382270
vertex 0.332955 -1.596998 0.375147
vertex 0.332768 -1.596998 0.371872
endloop
endfacet
facet normal -0.932228 0.000521 -0.361872
outer loop
vertex 0.334077 -1.596998 0.364434
vertex 0.333954 -1.596998 0.364751
vertex 0.333041 -0.282998 0.368997
endloop
endfacet
facet normal -0.544457 0.000000 -0.838789
outer loop
vertex 0.363512 -0.282998 0.333772
vertex 0.363512 -1.596998 0.333772
vertex 0.353935 -0.282998 0.339988
endloop
endfacet
facet normal -0.542960 0.000016 -0.839759
outer loop
vertex 0.353935 -0.282998 0.339988
vertex 0.363512 -1.596998 0.333772
vertex 0.354249 -1.596998 0.339761
endloop
endfacet
facet normal -0.629084 -0.000016 -0.777337
outer loop
vertex 0.353935 -0.282998 0.339988
vertex 0.354249 -1.596998 0.339761
vertex 0.350524 -0.282998 0.342749
endloop
endfacet
facet normal -0.624062 0.000008 -0.781375
outer loop
vertex 0.350524 -0.282998 0.342749
vertex 0.354249 -1.596998 0.339761
vertex 0.350517 -1.596998 0.342742
endloop
endfacet
facet normal -0.629094 0.000008 -0.777329
outer loop
vertex 0.350524 -0.282998 0.342749
vertex 0.350517 -1.596998 0.342742
vertex 0.347063 -0.282998 0.345550
endloop
endfacet
facet normal -0.624074 0.000030 -0.781366
outer loop
vertex 0.347063 -0.282998 0.345550
vertex 0.350517 -1.596998 0.342742
vertex 0.347549 -1.596998 0.345112
endloop
endfacet
facet normal -0.715979 -0.000032 -0.698121
outer loop
vertex 0.347063 -0.282998 0.345550
vertex 0.347549 -1.596998 0.345112
vertex 0.343707 -0.282998 0.348992
endloop
endfacet
facet normal -0.706440 0.000024 -0.707773
outer loop
vertex 0.343707 -0.282998 0.348992
vertex 0.347549 -1.596998 0.345112
vertex 0.343683 -1.596998 0.348971
endloop
endfacet
facet normal -0.715979 0.000024 -0.698122
outer loop
vertex 0.343707 -0.282998 0.348992
vertex 0.343683 -1.596998 0.348971
vertex 0.341796 -0.282998 0.350952
endloop
endfacet
facet normal -0.706443 0.000053 -0.707770
outer loop
vertex 0.341796 -0.282998 0.350952
vertex 0.343683 -1.596998 0.348971
vertex 0.342437 -1.596998 0.350214
endloop
endfacet
facet normal -0.804458 -0.000059 -0.594009
outer loop
vertex 0.341796 -0.282998 0.350952
vertex 0.342437 -1.596998 0.350214
vertex 0.339057 -0.282998 0.354660
endloop
endfacet
facet normal -0.790844 0.000037 -0.612018
outer loop
vertex 0.339057 -0.282998 0.354660
vertex 0.342437 -1.596998 0.350214
vertex 0.339018 -1.596998 0.354633
endloop
endfacet
facet normal -0.804471 0.000037 -0.593992
outer loop
vertex 0.339057 -0.282998 0.354660
vertex 0.339018 -1.596998 0.354633
vertex 0.337829 -0.282998 0.356323
endloop
endfacet
facet normal -0.790803 0.000072 -0.612070
outer loop
vertex 0.337829 -0.282998 0.356323
vertex 0.339018 -1.596998 0.354633
vertex 0.338432 -1.596998 0.355390
endloop
endfacet
facet normal -0.884769 -0.000074 -0.466030
outer loop
vertex 0.337829 -0.282998 0.356323
vertex 0.338432 -1.596998 0.355390
vertex 0.336030 -0.282998 0.359740
endloop
endfacet
facet normal -0.868478 0.000054 -0.495728
outer loop
vertex 0.336030 -0.282998 0.359740
vertex 0.338432 -1.596998 0.355390
vertex 0.335967 -1.596998 0.359708
endloop
endfacet
facet normal -0.884781 0.000054 -0.466008
outer loop
vertex 0.336030 -0.282998 0.359740
vertex 0.335967 -1.596998 0.359708
vertex 0.335214 -0.282998 0.361289
endloop
endfacet
facet normal -0.868528 0.000099 -0.495640
outer loop
vertex 0.335214 -0.282998 0.361289
vertex 0.335967 -1.596998 0.359708
vertex 0.335795 -1.596998 0.360009
endloop
endfacet
facet normal -0.946400 -0.000104 -0.322996
outer loop
vertex 0.335214 -0.282998 0.361289
vertex 0.335795 -1.596998 0.360009
vertex 0.334134 -0.282998 0.364453
endloop
endfacet
facet normal -0.932222 0.000045 -0.361887
outer loop
vertex 0.334134 -0.282998 0.364453
vertex 0.335795 -1.596998 0.360009
vertex 0.334077 -1.596998 0.364434
endloop
endfacet
facet normal -0.946410 0.000045 -0.322969
outer loop
vertex 0.334134 -0.282998 0.364453
vertex 0.334077 -1.596998 0.364434
vertex 0.333620 -0.282998 0.365961
endloop
endfacet
facet normal -0.982334 -0.000125 -0.187137
outer loop
vertex 0.333620 -0.282998 0.365961
vertex 0.334077 -1.596998 0.364434
vertex 0.333041 -0.282998 0.368997
endloop
endfacet
facet normal -0.978193 -0.000009 -0.207697
outer loop
vertex 0.333954 -1.596998 0.364751
vertex 0.333052 -1.596998 0.369000
vertex 0.333041 -0.282998 0.368997
endloop
endfacet
facet normal -0.978193 -0.000009 -0.207700
outer loop
vertex 0.333041 -0.282998 0.368997
vertex 0.333052 -1.596998 0.369000
vertex 0.332939 -1.596998 0.369534
endloop
endfacet
facet normal -0.982330 0.000000 -0.187158
outer loop
vertex 0.333041 -0.282998 0.368997
vertex 0.332939 -1.596998 0.369534
vertex 0.332939 -0.282998 0.369534
endloop
endfacet
facet normal -0.997328 0.000000 -0.073049
outer loop
vertex 0.332939 -0.282998 0.369534
vertex 0.332939 -1.596998 0.369534
vertex 0.332802 -1.596998 0.371404
endloop
endfacet
facet normal -0.044591 0.000000 0.999005
outer loop
vertex 0.354955 -1.596998 0.394307
vertex 0.354955 -0.282998 0.394307
vertex 0.353081 -0.282998 0.394223
endloop
endfacet
facet normal -0.993252 -0.000172 0.115977
outer loop
vertex 0.333011 -0.282998 0.375140
vertex 0.332780 -0.282998 0.373165
vertex 0.332802 -1.596998 0.371404
endloop
endfacet
facet normal -0.999044 0.000042 -0.043722
outer loop
vertex 0.332802 -1.596998 0.371404
vertex 0.332780 -0.282998 0.373165
vertex 0.332857 -0.282998 0.371406
endloop
endfacet
facet normal -0.999044 0.000042 -0.043707
outer loop
vertex 0.332802 -1.596998 0.371404
vertex 0.332857 -0.282998 0.371406
vertex 0.332939 -0.282998 0.369534
endloop
endfacet
facet normal -0.997327 0.000366 -0.073066
outer loop
vertex 0.332802 -1.596998 0.371404
vertex 0.332768 -1.596998 0.371872
vertex 0.333011 -0.282998 0.375140
endloop
endfacet
facet normal -0.998359 0.000042 0.057272
outer loop
vertex 0.333011 -0.282998 0.375140
vertex 0.332768 -1.596998 0.371872
vertex 0.332955 -1.596998 0.375147
endloop
endfacet
facet normal -0.993255 0.000042 0.115952
outer loop
vertex 0.333011 -0.282998 0.375140
vertex 0.332955 -1.596998 0.375147
vertex 0.333174 -0.282998 0.376537
endloop
endfacet
facet normal -0.998361 0.000105 0.057226
outer loop
vertex 0.333174 -0.282998 0.376537
vertex 0.332955 -1.596998 0.375147
vertex 0.332962 -1.596998 0.375256
endloop
endfacet
facet normal -0.962087 -0.000111 0.272744
outer loop
vertex 0.333174 -0.282998 0.376537
vertex 0.332962 -1.596998 0.375256
vertex 0.333813 -0.282998 0.378791
endloop
endfacet
facet normal -0.976493 0.000053 0.215550
outer loop
vertex 0.333813 -0.282998 0.378791
vertex 0.332962 -1.596998 0.375256
vertex 0.333746 -1.596998 0.378810
endloop
endfacet
facet normal -0.962100 0.000053 0.272697
outer loop
vertex 0.333813 -0.282998 0.378791
vertex 0.333746 -1.596998 0.378810
vertex 0.334166 -0.282998 0.380038
endloop
endfacet
facet normal -0.929711 -0.000047 0.368289
outer loop
vertex 0.334166 -0.282998 0.380038
vertex 0.333746 -1.596998 0.378810
vertex 0.334995 -1.596998 0.381962
endloop
endfacet
facet normal -0.906366 0.000047 0.422494
outer loop
vertex 0.334166 -0.282998 0.380038
vertex 0.334995 -1.596998 0.381962
vertex 0.335203 -0.282998 0.382262
endloop
endfacet
facet normal -0.859106 0.000019 0.511798
outer loop
vertex 0.335203 -0.282998 0.382262
vertex 0.334995 -1.596998 0.381962
vertex 0.335178 -1.596998 0.382270
endloop
endfacet
facet normal -0.906383 0.000020 0.422457
outer loop
vertex 0.335203 -0.282998 0.382262
vertex 0.335178 -1.596998 0.382270
vertex 0.335598 -0.282998 0.383111
endloop
endfacet
facet normal -0.859175 -0.000053 0.511682
outer loop
vertex 0.335598 -0.282998 0.383111
vertex 0.335178 -1.596998 0.382270
vertex 0.336857 -1.596998 0.385089
endloop
endfacet
facet normal -0.827538 0.000053 0.561410
outer loop
vertex 0.335598 -0.282998 0.383111
vertex 0.336857 -1.596998 0.385089
vertex 0.337177 -0.282998 0.385438
endloop
endfacet
facet normal -0.766764 0.000016 0.641929
outer loop
vertex 0.337177 -0.282998 0.385438
vertex 0.336857 -1.596998 0.385089
vertex 0.337157 -1.596998 0.385448
endloop
endfacet
facet normal -0.827514 0.000017 0.561446
outer loop
vertex 0.337177 -0.282998 0.385438
vertex 0.337157 -1.596998 0.385448
vertex 0.337642 -0.282998 0.386122
endloop
endfacet
facet normal -0.766754 -0.000047 0.641941
outer loop
vertex 0.337642 -0.282998 0.386122
vertex 0.337157 -1.596998 0.385448
vertex 0.339033 -1.596998 0.387688
endloop
endfacet
facet normal -0.727573 0.000047 0.686030
outer loop
vertex 0.337642 -0.282998 0.386122
vertex 0.339033 -1.596998 0.387688
vertex 0.339646 -0.282998 0.388248
endloop
endfacet
facet normal -0.654679 -0.000017 0.755907
outer loop
vertex 0.339646 -0.282998 0.388248
vertex 0.339033 -1.596998 0.387688
vertex 0.339658 -1.596998 0.388230
endloop
endfacet
facet normal -0.727516 -0.000016 0.686091
outer loop
vertex 0.339646 -0.282998 0.388248
vertex 0.339658 -1.596998 0.388230
vertex 0.339967 -0.282998 0.388589
endloop
endfacet
facet normal -0.654721 -0.000053 0.755871
outer loop
vertex 0.339967 -0.282998 0.388589
vertex 0.339658 -1.596998 0.388230
vertex 0.341784 -1.596998 0.390071
endloop
endfacet
facet normal -0.609032 0.000053 0.793146
outer loop
vertex 0.339967 -0.282998 0.388589
vertex 0.341784 -1.596998 0.390071
vertex 0.342570 -0.282998 0.390587
endloop
endfacet
facet normal -0.525980 -0.000020 0.850497
outer loop
vertex 0.342570 -0.282998 0.390587
vertex 0.341784 -1.596998 0.390071
vertex 0.342581 -1.596998 0.390564
endloop
endfacet
facet normal -0.609044 -0.000019 0.793136
outer loop
vertex 0.342570 -0.282998 0.390587
vertex 0.342581 -1.596998 0.390564
vertex 0.342854 -0.282998 0.390805
endloop
endfacet
facet normal -0.526000 -0.000047 0.850484
outer loop
vertex 0.342854 -0.282998 0.390805
vertex 0.342581 -1.596998 0.390564
vertex 0.344667 -1.596998 0.391854
endloop
endfacet
facet normal -0.474938 0.000047 0.880019
outer loop
vertex 0.342854 -0.282998 0.390805
vertex 0.344667 -1.596998 0.391854
vertex 0.345837 -0.282998 0.392416
endloop
endfacet
facet normal -0.383884 -0.000053 0.923381
outer loop
vertex 0.345837 -0.282998 0.392416
vertex 0.344667 -1.596998 0.391854
vertex 0.345864 -1.596998 0.392352
endloop
endfacet
facet normal -0.328735 -0.000053 0.944422
outer loop
vertex 0.345837 -0.282998 0.392416
vertex 0.345864 -1.596998 0.392352
vertex 0.349274 -0.282998 0.393612
endloop
endfacet
facet normal -0.383827 0.000111 0.923405
outer loop
vertex 0.349274 -0.282998 0.393612
vertex 0.345864 -1.596998 0.392352
vertex 0.348028 -1.596998 0.393251
endloop
endfacet
facet normal -0.174230 -0.000105 0.984705
outer loop
vertex 0.349274 -0.282998 0.393612
vertex 0.348028 -1.596998 0.393251
vertex 0.349382 -0.282998 0.393631
endloop
endfacet
facet normal -0.231765 -0.000042 0.972772
outer loop
vertex 0.349382 -0.282998 0.393631
vertex 0.348028 -1.596998 0.393251
vertex 0.349395 -1.596998 0.393577
endloop
endfacet
facet normal -0.174151 -0.000042 0.984719
outer loop
vertex 0.349382 -0.282998 0.393631
vertex 0.349395 -1.596998 0.393577
vertex 0.352613 -0.282998 0.394202
endloop
endfacet
facet normal -0.231791 0.000105 0.972766
outer loop
vertex 0.352613 -0.282998 0.394202
vertex 0.349395 -1.596998 0.393577
vertex 0.351330 -1.596998 0.394038
endloop
endfacet
facet normal -0.044517 -0.000081 0.999009
outer loop
vertex 0.352613 -0.282998 0.394202
vertex 0.351330 -1.596998 0.394038
vertex 0.353081 -0.282998 0.394223
endloop
endfacet
facet normal -0.073944 -0.000042 0.997262
outer loop
vertex 0.353081 -0.282998 0.394223
vertex 0.351330 -1.596998 0.394038
vertex 0.353086 -1.596998 0.394168
endloop
endfacet
facet normal -0.073904 -0.000042 0.997265
outer loop
vertex 0.353081 -0.282998 0.394223
vertex 0.353086 -1.596998 0.394168
vertex 0.354955 -1.596998 0.394307
endloop
endfacet
facet normal 0.091301 0.000000 0.995823
outer loop
vertex 0.361299 -0.282998 0.393725
vertex 0.354955 -0.282998 0.394307
vertex 0.354955 -1.596998 0.394307
endloop
endfacet
facet normal 0.487723 -0.000743 0.872998
outer loop
vertex 0.374614 -0.282998 0.389324
vertex 0.367717 -1.596998 0.392059
vertex 0.376230 -0.282998 0.388422
endloop
endfacet
facet normal 0.263051 0.000966 0.964782
outer loop
vertex 0.376230 -0.282998 0.388422
vertex 0.367717 -1.596998 0.392059
vertex 0.368706 -1.596998 0.391789
endloop
endfacet
facet normal 0.021969 0.000336 0.999759
outer loop
vertex 0.354955 -1.596998 0.394307
vertex 0.355958 -1.596998 0.394285
vertex 0.361299 -0.282998 0.393725
endloop
endfacet
facet normal 0.114558 -0.000043 0.993417
outer loop
vertex 0.361299 -0.282998 0.393725
vertex 0.355958 -1.596998 0.394285
vertex 0.361292 -1.596998 0.393670
endloop
endfacet
facet normal 0.091967 -0.000043 0.995762
outer loop
vertex 0.361299 -0.282998 0.393725
vertex 0.361292 -1.596998 0.393670
vertex 0.361348 -0.282998 0.393721
endloop
endfacet
facet normal 0.114573 -0.000043 0.993415
outer loop
vertex 0.361348 -0.282998 0.393721
vertex 0.361292 -1.596998 0.393670
vertex 0.362191 -1.596998 0.393566
endloop
endfacet
facet normal 0.245078 0.000043 0.969503
outer loop
vertex 0.361348 -0.282998 0.393721
vertex 0.362191 -1.596998 0.393566
vertex 0.367731 -0.282998 0.392107
endloop
endfacet
facet normal 0.263149 -0.000038 0.964755
outer loop
vertex 0.367731 -0.282998 0.392107
vertex 0.362191 -1.596998 0.393566
vertex 0.367717 -1.596998 0.392059
endloop
endfacet
facet normal 0.245028 -0.000038 0.969516
outer loop
vertex 0.367731 -0.282998 0.392107
vertex 0.367717 -1.596998 0.392059
vertex 0.367891 -0.282998 0.392067
endloop
endfacet
facet normal 0.377664 -0.000055 0.925943
outer loop
vertex 0.367891 -0.282998 0.392067
vertex 0.367717 -1.596998 0.392059
vertex 0.374614 -0.282998 0.389324
endloop
endfacet
facet normal 0.755386 0.000084 0.655281
outer loop
vertex 0.420059 -1.596998 0.348691
vertex 0.421004 -0.282998 0.347432
vertex 0.409222 -1.596998 0.361184
endloop
endfacet
facet normal 0.777475 -0.000390 0.628914
outer loop
vertex 0.409222 -1.596998 0.361184
vertex 0.421004 -0.282998 0.347432
vertex 0.417799 -0.282998 0.351394
endloop
endfacet
facet normal 0.715902 0.000528 0.698200
outer loop
vertex 0.409222 -1.596998 0.361184
vertex 0.417799 -0.282998 0.351394
vertex 0.402411 -1.596998 0.368167
endloop
endfacet
facet normal 0.393736 0.000101 0.919224
outer loop
vertex 0.368706 -1.596998 0.391789
vertex 0.375618 -1.596998 0.388828
vertex 0.376230 -0.282998 0.388422
endloop
endfacet
facet normal 0.503008 0.000033 0.864282
outer loop
vertex 0.376230 -0.282998 0.388422
vertex 0.375618 -1.596998 0.388828
vertex 0.376251 -1.596998 0.388460
endloop
endfacet
facet normal 0.487707 0.000033 0.873007
outer loop
vertex 0.376230 -0.282998 0.388422
vertex 0.376251 -1.596998 0.388460
vertex 0.381714 -0.282998 0.385358
endloop
endfacet
facet normal 0.502969 -0.000051 0.864305
outer loop
vertex 0.381714 -0.282998 0.385358
vertex 0.376251 -1.596998 0.388460
vertex 0.382944 -1.596998 0.384565
endloop
endfacet
facet normal 0.577355 0.000048 0.816493
outer loop
vertex 0.381714 -0.282998 0.385358
vertex 0.382944 -1.596998 0.384565
vertex 0.387222 -0.282998 0.381463
endloop
endfacet
facet normal 0.591432 -0.000022 0.806355
outer loop
vertex 0.387222 -0.282998 0.381463
vertex 0.382944 -1.596998 0.384565
vertex 0.387204 -1.596998 0.381441
endloop
endfacet
facet normal 0.577360 -0.000022 0.816490
outer loop
vertex 0.387222 -0.282998 0.381463
vertex 0.387204 -1.596998 0.381441
vertex 0.389356 -0.282998 0.379954
endloop
endfacet
facet normal 0.591432 -0.000056 0.806355
outer loop
vertex 0.389356 -0.282998 0.379954
vertex 0.387204 -1.596998 0.381441
vertex 0.390885 -1.596998 0.378741
endloop
endfacet
facet normal 0.648405 0.000051 0.761296
outer loop
vertex 0.389356 -0.282998 0.379954
vertex 0.390885 -1.596998 0.378741
vertex 0.397505 -0.282998 0.373013
endloop
endfacet
facet normal 0.661752 -0.000066 0.749723
outer loop
vertex 0.397505 -0.282998 0.373013
vertex 0.390885 -1.596998 0.378741
vertex 0.399608 -1.596998 0.371041
endloop
endfacet
facet normal 0.702838 0.000057 0.711350
outer loop
vertex 0.397505 -0.282998 0.373013
vertex 0.399608 -1.596998 0.371041
vertex 0.402412 -0.282998 0.368166
endloop
endfacet
facet normal 0.715907 0.000000 0.698195
outer loop
vertex 0.402412 -0.282998 0.368166
vertex 0.399608 -1.596998 0.371041
vertex 0.402411 -1.596998 0.368167
endloop
endfacet
facet normal 0.702835 0.000000 0.711353
outer loop
vertex 0.402412 -0.282998 0.368166
vertex 0.402411 -1.596998 0.368167
vertex 0.406191 -0.282998 0.364431
endloop
endfacet
facet normal 0.746859 -0.000258 0.664982
outer loop
vertex 0.406191 -0.282998 0.364431
vertex 0.402411 -1.596998 0.368167
vertex 0.417799 -0.282998 0.351394
endloop
endfacet
facet normal 0.779131 0.000040 0.626861
outer loop
vertex 0.420059 -1.596998 0.348691
vertex 0.421045 -1.596998 0.347465
vertex 0.421004 -0.282998 0.347432
endloop
endfacet
facet normal 0.779135 0.000040 0.626856
outer loop
vertex 0.421004 -0.282998 0.347432
vertex 0.421045 -1.596998 0.347465
vertex 0.433508 -1.596998 0.331974
endloop
endfacet
facet normal 0.777474 0.000000 0.628915
outer loop
vertex 0.421004 -0.282998 0.347432
vertex 0.433508 -1.596998 0.331974
vertex 0.433508 -0.282998 0.331974
endloop
endfacet
facet normal 0.782936 0.000000 0.622102
outer loop
vertex 0.433508 -0.282998 0.331974
vertex 0.433508 -1.596998 0.331974
vertex 0.486417 -0.282998 0.265387
endloop
endfacet
facet normal 0.782936 0.000000 0.622102
outer loop
vertex 0.486417 -0.282998 0.265387
vertex 0.433508 -1.596998 0.331974
vertex 0.486417 -1.596998 0.265387
endloop
endfacet
facet normal 0.843387 0.000000 -0.537307
outer loop
vertex 0.486417 -0.282998 0.265387
vertex 0.486417 -1.596998 0.265387
vertex 0.484805 -0.282998 0.262857
endloop
endfacet
facet normal 0.843387 0.000000 -0.537307
outer loop
vertex 0.484805 -0.282998 0.262857
vertex 0.486417 -1.596998 0.265387
vertex 0.484805 -1.596998 0.262857
endloop
endfacet
facet normal -0.504723 0.000000 -0.863281
outer loop
vertex 0.484805 -0.282998 0.262857
vertex 0.484805 -1.596998 0.262857
vertex 0.363512 -0.282998 0.333772
endloop
endfacet
facet normal -0.504723 0.000000 -0.863281
outer loop
vertex 0.363512 -0.282998 0.333772
vertex 0.484805 -1.596998 0.262857
vertex 0.363512 -1.596998 0.333772
endloop
endfacet
facet normal 0.000000 -1.000000 0.000000
outer loop
vertex 0.484805 0.283002 0.262857
vertex 0.486417 0.283002 0.265387
vertex 0.363512 0.283002 0.333772
endloop
endfacet
facet normal 0.000000 -1.000000 0.000000
outer loop
vertex 0.363512 0.283002 0.333772
vertex 0.486417 0.283002 0.265387
vertex 0.433508 0.283002 0.331974
endloop
endfacet
facet normal 0.000000 -1.000000 0.000000
outer loop
vertex 0.376271 0.283002 0.388495
vertex 0.367734 0.283002 0.392118
vertex 0.332939 0.283002 0.369534
endloop
endfacet
facet normal 0.000000 -1.000000 0.000000
outer loop
vertex 0.345837 0.283002 0.392416
vertex 0.342553 0.283002 0.390608
vertex 0.332782 0.283002 0.371403
endloop
endfacet
facet normal 0.000000 -1.000000 0.000000
outer loop
vertex 0.345837 0.283002 0.392416
vertex 0.332782 0.283002 0.371403
vertex 0.349381 0.283002 0.393639
endloop
endfacet
facet normal 0.000000 -1.000000 0.000000
outer loop
vertex 0.335947 0.283002 0.359696
vertex 0.338972 0.283002 0.354597
vertex 0.387274 0.283002 0.381537
endloop
endfacet
facet normal 0.000000 -1.000000 0.000009
outer loop
vertex 0.367734 0.283002 0.392118
vertex 0.361299 0.283002 0.393729
vertex 0.332939 0.283002 0.369534
endloop
endfacet
facet normal 0.000000 -1.000000 -0.000003
outer loop
vertex 0.332939 0.283002 0.369534
vertex 0.361299 0.283002 0.393729
vertex 0.354955 0.283002 0.394307
endloop
endfacet
facet normal 0.000000 -1.000000 0.000000
outer loop
vertex 0.332939 0.283002 0.369534
vertex 0.354955 0.283002 0.394307
vertex 0.332782 0.283002 0.371403
endloop
endfacet
facet normal 0.000000 -1.000000 0.000006
outer loop
vertex 0.332782 0.283002 0.371403
vertex 0.354955 0.283002 0.394307
vertex 0.353080 0.283002 0.394243
endloop
endfacet
facet normal 0.000000 -1.000000 0.000003
outer loop
vertex 0.332782 0.283002 0.371403
vertex 0.353080 0.283002 0.394243
vertex 0.349381 0.283002 0.393639
endloop
endfacet
facet normal 0.000000 -1.000000 0.000000
outer loop
vertex 0.332782 0.283002 0.371403
vertex 0.335155 0.283002 0.382284
vertex 0.332947 0.283002 0.375148
endloop
endfacet
facet normal 0.000000 -1.000000 0.000000
outer loop
vertex 0.332947 0.283002 0.375148
vertex 0.335155 0.283002 0.382284
vertex 0.333746 0.283002 0.378810
endloop
endfacet
facet normal 0.000000 -1.000000 0.000000
outer loop
vertex 0.335947 0.283002 0.359696
vertex 0.387274 0.283002 0.381537
vertex 0.334054 0.283002 0.364425
endloop
endfacet
facet normal 0.000000 -1.000000 0.000000
outer loop
vertex 0.433508 0.283002 0.331974
vertex 0.421061 0.283002 0.347478
vertex 0.363512 0.283002 0.333772
endloop
endfacet
facet normal 0.000000 -1.000000 0.000001
outer loop
vertex 0.363512 0.283002 0.333772
vertex 0.421061 0.283002 0.347478
vertex 0.402481 0.283002 0.368236
endloop
endfacet
facet normal 0.000000 -1.000000 0.000000
outer loop
vertex 0.363512 0.283002 0.333772
vertex 0.402481 0.283002 0.368236
vertex 0.350448 0.283002 0.342655
endloop
endfacet
facet normal 0.000000 -1.000000 0.000000
outer loop
vertex 0.350448 0.283002 0.342655
vertex 0.402481 0.283002 0.368236
vertex 0.387274 0.283002 0.381537
endloop
endfacet
facet normal 0.000000 -1.000000 -0.000004
outer loop
vertex 0.350448 0.283002 0.342655
vertex 0.387274 0.283002 0.381537
vertex 0.343627 0.283002 0.348914
endloop
endfacet
facet normal 0.000000 -1.000000 0.000005
outer loop
vertex 0.343627 0.283002 0.348914
vertex 0.387274 0.283002 0.381537
vertex 0.338972 0.283002 0.354597
endloop
endfacet
facet normal 0.000000 -1.000000 0.000000
outer loop
vertex 0.342553 0.283002 0.390608
vertex 0.339624 0.283002 0.388270
vertex 0.332782 0.283002 0.371403
endloop
endfacet
facet normal 0.000000 -1.000000 0.000005
outer loop
vertex 0.332782 0.283002 0.371403
vertex 0.339624 0.283002 0.388270
vertex 0.337133 0.283002 0.385468
endloop
endfacet
facet normal 0.000000 -1.000000 -0.000008
outer loop
vertex 0.332782 0.283002 0.371403
vertex 0.337133 0.283002 0.385468
vertex 0.335155 0.283002 0.382284
endloop
endfacet
facet normal 0.000000 -1.000000 -0.000004
outer loop
vertex 0.376271 0.283002 0.388495
vertex 0.332939 0.283002 0.369534
vertex 0.387274 0.283002 0.381537
endloop
endfacet
facet normal 0.000000 -1.000000 -0.000009
outer loop
vertex 0.387274 0.283002 0.381537
vertex 0.332939 0.283002 0.369534
vertex 0.333013 0.283002 0.368992
endloop
endfacet
facet normal 0.000000 -1.000000 0.000006
outer loop
vertex 0.387274 0.283002 0.381537
vertex 0.333013 0.283002 0.368992
vertex 0.334054 0.283002 0.364425
endloop
endfacet
facet normal 0.000000 1.000000 0.000000
outer loop
vertex 0.486417 1.597002 0.265387
vertex 0.484805 1.597002 0.262857
vertex 0.433508 1.597002 0.331974
endloop
endfacet
facet normal 0.000000 1.000000 0.000006
outer loop
vertex 0.433508 1.597002 0.331974
vertex 0.484805 1.597002 0.262857
vertex 0.363512 1.597002 0.333772
endloop
endfacet
facet normal 0.000000 1.000000 0.000000
outer loop
vertex 0.433508 1.597002 0.331974
vertex 0.363512 1.597002 0.333772
vertex 0.421061 1.597002 0.347478
endloop
endfacet
facet normal 0.000000 1.000000 0.000000
outer loop
vertex 0.332782 1.597002 0.371403
vertex 0.354955 1.597002 0.394307
vertex 0.332939 1.597002 0.369534
endloop
endfacet
facet normal 0.000000 1.000000 0.000000
outer loop
vertex 0.332939 1.597002 0.369534
vertex 0.354955 1.597002 0.394307
vertex 0.361299 1.597002 0.393729
endloop
endfacet
facet normal 0.000000 1.000000 0.000000
outer loop
vertex 0.361299 1.597002 0.393729
vertex 0.367734 1.597002 0.392118
vertex 0.332939 1.597002 0.369534
endloop
endfacet
facet normal 0.000000 1.000000 0.000000
outer loop
vertex 0.332939 1.597002 0.369534
vertex 0.367734 1.597002 0.392118
vertex 0.376271 1.597002 0.388495
endloop
endfacet
facet normal 0.000000 1.000000 0.000000
outer loop
vertex 0.332939 1.597002 0.369534
vertex 0.376271 1.597002 0.388495
vertex 0.387274 1.597002 0.381537
endloop
endfacet
facet normal 0.000000 1.000000 0.000005
outer loop
vertex 0.421061 1.597002 0.347478
vertex 0.363512 1.597002 0.333772
vertex 0.402481 1.597002 0.368236
endloop
endfacet
facet normal 0.000000 1.000000 -0.000005
outer loop
vertex 0.402481 1.597002 0.368236
vertex 0.363512 1.597002 0.333772
vertex 0.350448 1.597002 0.342655
endloop
endfacet
facet normal 0.000000 1.000000 0.000007
outer loop
vertex 0.402481 1.597002 0.368236
vertex 0.350448 1.597002 0.342655
vertex 0.387274 1.597002 0.381537
endloop
endfacet
facet normal 0.000000 1.000000 0.000000
outer loop
vertex 0.332947 1.597002 0.375148
vertex 0.333746 1.597002 0.378810
vertex 0.335155 1.597002 0.382284
endloop
endfacet
facet normal 0.000000 1.000000 0.000000
outer loop
vertex 0.339624 1.597002 0.388270
vertex 0.342553 1.597002 0.390608
vertex 0.332782 1.597002 0.371403
endloop
endfacet
facet normal 0.000000 1.000000 0.000000
outer loop
vertex 0.332782 1.597002 0.371403
vertex 0.342553 1.597002 0.390608
vertex 0.345837 1.597002 0.392416
endloop
endfacet
facet normal 0.000000 1.000000 -0.000030
outer loop
vertex 0.350448 1.597002 0.342655
vertex 0.343627 1.597002 0.348914
vertex 0.387274 1.597002 0.381537
endloop
endfacet
facet normal 0.000000 1.000000 0.000026
outer loop
vertex 0.387274 1.597002 0.381537
vertex 0.343627 1.597002 0.348914
vertex 0.338972 1.597002 0.354597
endloop
endfacet
facet normal 0.000000 1.000000 -0.000020
outer loop
vertex 0.387274 1.597002 0.381537
vertex 0.338972 1.597002 0.354597
vertex 0.335947 1.597002 0.359696
endloop
endfacet
facet normal 0.000000 1.000000 0.000064
outer loop
vertex 0.345837 1.597002 0.392416
vertex 0.349381 1.597002 0.393639
vertex 0.332782 1.597002 0.371403
endloop
endfacet
facet normal 0.000000 1.000000 -0.000039
outer loop
vertex 0.332782 1.597002 0.371403
vertex 0.349381 1.597002 0.393639
vertex 0.353080 1.597002 0.394243
endloop
endfacet
facet normal 0.000000 1.000000 0.000034
outer loop
vertex 0.332782 1.597002 0.371403
vertex 0.353080 1.597002 0.394243
vertex 0.354955 1.597002 0.394307
endloop
endfacet
facet normal 0.000000 1.000000 0.000000
outer loop
vertex 0.335947 1.597002 0.359696
vertex 0.334054 1.597002 0.364425
vertex 0.387274 1.597002 0.381537
endloop
endfacet
facet normal 0.000000 1.000000 -0.000002
outer loop
vertex 0.387274 1.597002 0.381537
vertex 0.334054 1.597002 0.364425
vertex 0.333013 1.597002 0.368992
endloop
endfacet
facet normal 0.000000 1.000000 0.000018
outer loop
vertex 0.387274 1.597002 0.381537
vertex 0.333013 1.597002 0.368992
vertex 0.332939 1.597002 0.369534
endloop
endfacet
facet normal 0.000000 1.000000 -0.000066
outer loop
vertex 0.332947 1.597002 0.375148
vertex 0.335155 1.597002 0.382284
vertex 0.332782 1.597002 0.371403
endloop
endfacet
facet normal 0.000000 1.000000 0.000000
outer loop
vertex 0.332782 1.597002 0.371403
vertex 0.335155 1.597002 0.382284
vertex 0.337133 1.597002 0.385468
endloop
endfacet
facet normal 0.000000 1.000000 0.000000
outer loop
vertex 0.332782 1.597002 0.371403
vertex 0.337133 1.597002 0.385468
vertex 0.339624 1.597002 0.388270
endloop
endfacet
facet normal -0.990801 0.000000 -0.135327
outer loop
vertex 0.332939 0.283002 0.369534
vertex 0.332939 1.597002 0.369534
vertex 0.333013 1.597002 0.368992
endloop
endfacet
facet normal -0.990799 0.000000 -0.135339
outer loop
vertex 0.332939 0.283002 0.369534
vertex 0.333013 1.597002 0.368992
vertex 0.333013 0.283002 0.368992
endloop
endfacet
facet normal -0.974993 0.000000 -0.222236
outer loop
vertex 0.333013 0.283002 0.368992
vertex 0.333013 1.597002 0.368992
vertex 0.334054 1.597002 0.364425
endloop
endfacet
facet normal -0.974993 0.000000 -0.222234
outer loop
vertex 0.333013 0.283002 0.368992
vertex 0.334054 1.597002 0.364425
vertex 0.334054 0.283002 0.364425
endloop
endfacet
facet normal -0.928374 0.000000 -0.371648
outer loop
vertex 0.334054 0.283002 0.364425
vertex 0.334054 1.597002 0.364425
vertex 0.335947 1.597002 0.359696
endloop
endfacet
facet normal -0.928372 0.000000 -0.371651
outer loop
vertex 0.334054 0.283002 0.364425
vertex 0.335947 1.597002 0.359696
vertex 0.335947 0.283002 0.359696
endloop
endfacet
facet normal -0.860074 0.000000 -0.510169
outer loop
vertex 0.335947 0.283002 0.359696
vertex 0.335947 1.597002 0.359696
vertex 0.338972 1.597002 0.354597
endloop
endfacet
facet normal -0.860074 0.000000 -0.510169
outer loop
vertex 0.335947 0.283002 0.359696
vertex 0.338972 1.597002 0.354597
vertex 0.338972 0.283002 0.354597
endloop
endfacet
facet normal -0.773595 0.000000 -0.633680
outer loop
vertex 0.338972 0.283002 0.354597
vertex 0.338972 1.597002 0.354597
vertex 0.343627 1.597002 0.348914
endloop
endfacet
facet normal -0.773593 0.000000 -0.633683
outer loop
vertex 0.338972 0.283002 0.354597
vertex 0.343627 1.597002 0.348914
vertex 0.343627 0.283002 0.348914
endloop
endfacet
facet normal -0.676059 0.000000 -0.736848
outer loop
vertex 0.343627 0.283002 0.348914
vertex 0.343627 1.597002 0.348914
vertex 0.350448 1.597002 0.342655
endloop
endfacet
facet normal -0.676062 0.000000 -0.736845
outer loop
vertex 0.343627 0.283002 0.348914
vertex 0.350448 1.597002 0.342655
vertex 0.350448 0.283002 0.342655
endloop
endfacet
facet normal -0.562316 0.000000 -0.826923
outer loop
vertex 0.350448 0.283002 0.342655
vertex 0.350448 1.597002 0.342655
vertex 0.363512 1.597002 0.333772
endloop
endfacet
facet normal -0.562320 0.000000 -0.826920
outer loop
vertex 0.350448 0.283002 0.342655
vertex 0.363512 1.597002 0.333772
vertex 0.363512 0.283002 0.333772
endloop
endfacet
facet normal -0.996493 0.000000 -0.083672
outer loop
vertex 0.332939 1.597002 0.369534
vertex 0.332939 0.283002 0.369534
vertex 0.332782 0.283002 0.371403
endloop
endfacet
facet normal -0.996493 0.000000 -0.083674
outer loop
vertex 0.332939 1.597002 0.369534
vertex 0.332782 0.283002 0.371403
vertex 0.332782 1.597002 0.371403
endloop
endfacet
facet normal -0.999025 0.000000 0.044148
outer loop
vertex 0.332782 1.597002 0.371403
vertex 0.332782 0.283002 0.371403
vertex 0.332947 0.283002 0.375148
endloop
endfacet
facet normal -0.999025 0.000000 0.044149
outer loop
vertex 0.332782 1.597002 0.371403
vertex 0.332947 0.283002 0.375148
vertex 0.332947 1.597002 0.375148
endloop
endfacet
facet normal -0.977030 0.000000 0.213103
outer loop
vertex 0.332947 1.597002 0.375148
vertex 0.332947 0.283002 0.375148
vertex 0.333746 0.283002 0.378810
endloop
endfacet
facet normal -0.977030 0.000000 0.213103
outer loop
vertex 0.332947 1.597002 0.375148
vertex 0.333746 0.283002 0.378810
vertex 0.333746 1.597002 0.378810
endloop
endfacet
facet normal -0.926665 0.000000 0.375888
outer loop
vertex 0.333746 1.597002 0.378810
vertex 0.333746 0.283002 0.378810
vertex 0.335155 0.283002 0.382284
endloop
endfacet
facet normal -0.926667 0.000000 0.375884
outer loop
vertex 0.333746 1.597002 0.378810
vertex 0.335155 0.283002 0.382284
vertex 0.335155 1.597002 0.382284
endloop
endfacet
facet normal -0.849394 0.000000 0.527760
outer loop
vertex 0.335155 1.597002 0.382284
vertex 0.335155 0.283002 0.382284
vertex 0.337133 0.283002 0.385468
endloop
endfacet
facet normal -0.849407 0.000000 0.527738
outer loop
vertex 0.335155 1.597002 0.382284
vertex 0.337133 0.283002 0.385468
vertex 0.337133 1.597002 0.385468
endloop
endfacet
facet normal -0.747469 0.000000 0.664297
outer loop
vertex 0.337133 1.597002 0.385468
vertex 0.337133 0.283002 0.385468
vertex 0.339624 0.283002 0.388270
endloop
endfacet
facet normal -0.747469 0.000000 0.664297
outer loop
vertex 0.337133 1.597002 0.385468
vertex 0.339624 0.283002 0.388270
vertex 0.339624 1.597002 0.388270
endloop
endfacet
facet normal -0.623857 0.000000 0.781539
outer loop
vertex 0.339624 1.597002 0.388270
vertex 0.339624 0.283002 0.388270
vertex 0.342553 0.283002 0.390608
endloop
endfacet
facet normal -0.623857 0.000000 0.781538
outer loop
vertex 0.339624 1.597002 0.388270
vertex 0.342553 0.283002 0.390608
vertex 0.342553 1.597002 0.390608
endloop
endfacet
facet normal -0.482126 0.000000 0.876102
outer loop
vertex 0.342553 1.597002 0.390608
vertex 0.342553 0.283002 0.390608
vertex 0.345837 0.283002 0.392416
endloop
endfacet
facet normal -0.482107 0.000000 0.876112
outer loop
vertex 0.342553 1.597002 0.390608
vertex 0.345837 0.283002 0.392416
vertex 0.345837 1.597002 0.392416
endloop
endfacet
facet normal -0.326389 0.000000 0.945236
outer loop
vertex 0.345837 1.597002 0.392416
vertex 0.345837 0.283002 0.392416
vertex 0.349381 0.283002 0.393639
endloop
endfacet
facet normal -0.326389 0.000000 0.945236
outer loop
vertex 0.345837 1.597002 0.392416
vertex 0.349381 0.283002 0.393639
vertex 0.349381 1.597002 0.393639
endloop
endfacet
facet normal -0.161163 0.000000 0.986928
outer loop
vertex 0.349381 1.597002 0.393639
vertex 0.349381 0.283002 0.393639
vertex 0.353080 0.283002 0.394243
endloop
endfacet
facet normal -0.161163 0.000000 0.986928
outer loop
vertex 0.349381 1.597002 0.393639
vertex 0.353080 0.283002 0.394243
vertex 0.353080 1.597002 0.394243
endloop
endfacet
facet normal -0.033900 0.000000 0.999425
outer loop
vertex 0.353080 1.597002 0.394243
vertex 0.353080 0.283002 0.394243
vertex 0.354955 0.283002 0.394307
endloop
endfacet
facet normal -0.033948 0.000000 0.999424
outer loop
vertex 0.353080 1.597002 0.394243
vertex 0.354955 0.283002 0.394307
vertex 0.354955 1.597002 0.394307
endloop
endfacet
facet normal 0.779788 0.000000 0.626044
outer loop
vertex 0.433508 0.283002 0.331974
vertex 0.433508 1.597002 0.331974
vertex 0.421061 1.597002 0.347478
endloop
endfacet
facet normal 0.779788 0.000000 0.626044
outer loop
vertex 0.433508 0.283002 0.331974
vertex 0.421061 1.597002 0.347478
vertex 0.421061 0.283002 0.347478
endloop
endfacet
facet normal 0.745098 0.000000 0.666955
outer loop
vertex 0.421061 0.283002 0.347478
vertex 0.421061 1.597002 0.347478
vertex 0.402481 1.597002 0.368236
endloop
endfacet
facet normal 0.745097 0.000000 0.666956
outer loop
vertex 0.421061 0.283002 0.347478
vertex 0.402481 1.597002 0.368236
vertex 0.402481 0.283002 0.368236
endloop
endfacet
facet normal 0.658390 0.000000 0.752677
outer loop
vertex 0.402481 0.283002 0.368236
vertex 0.402481 1.597002 0.368236
vertex 0.387274 1.597002 0.381537
endloop
endfacet
facet normal 0.658389 0.000000 0.752678
outer loop
vertex 0.402481 0.283002 0.368236
vertex 0.387274 1.597002 0.381537
vertex 0.387274 0.283002 0.381537
endloop
endfacet
facet normal 0.534405 0.000000 0.845228
outer loop
vertex 0.387274 0.283002 0.381537
vertex 0.387274 1.597002 0.381537
vertex 0.376271 1.597002 0.388495
endloop
endfacet
facet normal 0.534405 0.000000 0.845228
outer loop
vertex 0.387274 0.283002 0.381537
vertex 0.376271 1.597002 0.388495
vertex 0.376271 0.283002 0.388495
endloop
endfacet
facet normal 0.390750 0.000000 0.920497
outer loop
vertex 0.376271 0.283002 0.388495
vertex 0.376271 1.597002 0.388495
vertex 0.367734 1.597002 0.392118
endloop
endfacet
facet normal 0.390750 0.000000 0.920497
outer loop
vertex 0.376271 0.283002 0.388495
vertex 0.367734 1.597002 0.392118
vertex 0.367734 0.283002 0.392118
endloop
endfacet
facet normal 0.242856 0.000000 0.970062
outer loop
vertex 0.367734 0.283002 0.392118
vertex 0.367734 1.597002 0.392118
vertex 0.361299 1.597002 0.393729
endloop
endfacet
facet normal 0.242830 0.000000 0.970069
outer loop
vertex 0.367734 0.283002 0.392118
vertex 0.361299 1.597002 0.393729
vertex 0.361299 0.283002 0.393729
endloop
endfacet
facet normal 0.090674 0.000000 0.995881
outer loop
vertex 0.361299 0.283002 0.393729
vertex 0.361299 1.597002 0.393729
vertex 0.354955 1.597002 0.394307
endloop
endfacet
facet normal 0.090660 0.000000 0.995882
outer loop
vertex 0.361299 0.283002 0.393729
vertex 0.354955 1.597002 0.394307
vertex 0.354955 0.283002 0.394307
endloop
endfacet
facet normal 0.782936 0.000000 0.622102
outer loop
vertex 0.433508 1.597002 0.331974
vertex 0.433508 0.283002 0.331974
vertex 0.486417 1.597002 0.265387
endloop
endfacet
facet normal 0.782936 0.000000 0.622102
outer loop
vertex 0.486417 1.597002 0.265387
vertex 0.433508 0.283002 0.331974
vertex 0.486417 0.283002 0.265387
endloop
endfacet
facet normal 0.843387 0.000000 -0.537307
outer loop
vertex 0.486417 1.597002 0.265387
vertex 0.486417 0.283002 0.265387
vertex 0.484805 1.597002 0.262857
endloop
endfacet
facet normal 0.843387 0.000000 -0.537307
outer loop
vertex 0.484805 1.597002 0.262857
vertex 0.486417 0.283002 0.265387
vertex 0.484805 0.283002 0.262857
endloop
endfacet
facet normal -0.504723 0.000000 -0.863281
outer loop
vertex 0.484805 1.597002 0.262857
vertex 0.484805 0.283002 0.262857
vertex 0.363512 1.597002 0.333772
endloop
endfacet
facet normal -0.504723 0.000000 -0.863281
outer loop
vertex 0.363512 1.597002 0.333772
vertex 0.484805 0.283002 0.262857
vertex 0.363512 0.283002 0.333772
endloop
endfacet
endsolid elevator
